<svg xmlns="http://www.w3.org/2000/svg" width="1024" height="1024" viewBox="0 0 1024 1024">
  <title>Agentnagar reference district — north-up plan</title>
  <desc>One river on the west edge, one bridge north, workshop west of the central tree, library east, three downtown towers north, tram boulevard south, waterfront park southwest. This diagram is a layout guide, not a visual style.</desc>
  <rect width="1024" height="1024" fill="#fbf7ef"/>
  <g font-family="sans-serif" fill="#253345" text-anchor="middle">
    <text x="512" y="38" font-size="25">REFERENCE DISTRICT · NORTH-UP PLAN</text>
    <text x="512" y="66" font-size="16">Layout guide only — flat footprints, no perspective</text>
  </g>
  <g transform="translate(112 112)">
    <rect width="800" height="800" fill="#e9e4d8" stroke="#253345" stroke-width="3"/>
    <rect width="160" height="800" fill="#96c4d4"/>
    <path d="M170 0V800 M0 120H800 M170 640H800 M440 120V640 M624 120V640 M170 400H800" fill="none" stroke="#fffaf0" stroke-width="38"/>
    <rect x="0" y="98" width="180" height="44" fill="#a9a89e" stroke="#253345" stroke-width="3"/>
    <path d="M0 105H180 M0 135H180" stroke="#253345" stroke-width="2"/>
    <rect x="184" y="480" width="72" height="120" rx="12" fill="#a9cc91"/>
    <path d="M200 488Q243 520 212 552T233 592" fill="none" stroke="#fffaf0" stroke-width="9"/>
    <rect x="226" y="344" width="108" height="112" fill="#ce874e" stroke="#253345" stroke-width="3"/>
    <path d="M262 344V456 M298 344V456" stroke="#253345" stroke-width="2"/>
    <path d="M334 385V415" stroke="#fffaf0" stroke-width="8"/>
    <rect x="378" y="338" width="124" height="124" fill="#fffaf0" stroke="#a9a89e" stroke-width="3"/>
    <circle cx="440" cy="400" r="43" fill="#507c46" stroke="#253345" stroke-width="3"/>
    <circle cx="440" cy="400" r="23" fill="#749d57"/>
    <rect x="570" y="344" width="108" height="112" rx="15" fill="#719cbe" stroke="#253345" stroke-width="3"/>
    <path d="M585 344V456 M663 344V456" stroke="#253345" stroke-width="2"/>
    <path d="M570 385V415" stroke="#fffaf0" stroke-width="8"/>
    <g fill="#8c929c" stroke="#253345" stroke-width="3">
      <rect x="445" y="40" width="66" height="80"/>
      <rect x="545" y="40" width="66" height="80"/>
      <rect x="645" y="40" width="66" height="80"/>
    </g>
    <path d="M180 632H800 M180 648H800" stroke="#766084" stroke-width="3"/>
    <rect x="400" y="617" width="82" height="30" rx="7" fill="#fffaf0" stroke="#253345" stroke-width="3"/>
    <path d="M407 637H475" stroke="#d7745d" stroke-width="7"/>
    <rect x="400" y="667" width="82" height="12" fill="#766084"/>
    <g font-family="sans-serif" fill="#253345" font-size="19" text-anchor="middle">
      <text x="75" y="300">R1 River</text><text x="83" y="84">B1 Bridge</text>
      <text x="280" y="490">W1 Workshop</text><text x="440" y="490">T1 Tree Square</text>
      <text x="624" y="490">L1 Library</text><text x="578" y="165">D1 Downtown</text>
      <text x="440" y="715">S1 Tram boulevard</text><text x="228" y="623">P1 Park</text>
    </g>
    <path d="M755 270V200L744 217M755 200L766 217" fill="none" stroke="#253345" stroke-width="4"/>
    <text x="755" y="188" text-anchor="middle" font-family="sans-serif" font-size="23">N</text>
    <path d="M440 795V746L428 762M440 746L452 762" fill="none" stroke="#253345" stroke-width="3"/>
  </g>
  <g font-family="sans-serif" fill="#253345" text-anchor="middle" font-size="17">
    <text x="512" y="949">STREET camera: south looking north · DIAGONAL: southeast looking northwest</text>
    <text x="512" y="978">MAP and TOP-DOWN: vertical projection · One bridge only · Ground-level tram</text>
  </g>
</svg>
